HIERARCHY
ROOT joint_Root
{
  OFFSET 0 0 0
  CHANNELS 6 Xposition Yposition Zposition Zrotation Xrotation Yrotation
  JOINT Hips
  {
    OFFSET 0 93.9241 -3
    CHANNELS 6 Xposition Yposition Zposition Zrotation Xrotation Yrotation
    JOINT Spine
    {
      OFFSET 15.7357 0 0
      CHANNELS 6 Xposition Yposition Zposition Zrotation Xrotation Yrotation
      JOINT Chest
      {
        OFFSET 8.98455 -0.406207 0
        CHANNELS 6 Xposition Yposition Zposition Zrotation Xrotation Yrotation
        JOINT Neck
        {
          OFFSET 16.3773 0 0
          CHANNELS 6 Xposition Yposition Zposition Zrotation Xrotation Yrotation
          JOINT Head
          {
            OFFSET 6.45672 0 0
            CHANNELS 6 Xposition Yposition Zposition Zrotation Xrotation Yrotation
            End Site
            {
              OFFSET 0 0 0
            }
          }
        }
        JOINT Shoulder_L
        {
          OFFSET 12.9942 -0.242716 4.98039
          CHANNELS 6 Xposition Yposition Zposition Zrotation Xrotation Yrotation
          JOINT UpperArm_L
          {
            OFFSET 5.34809 0 0
            CHANNELS 6 Xposition Yposition Zposition Zrotation Xrotation Yrotation
            JOINT LowerArm_L
            {
              OFFSET 24.3286 1.87007e-05 0
              CHANNELS 6 Xposition Yposition Zposition Zrotation Xrotation Yrotation
              JOINT Hand_L
              {
                OFFSET 22.2916 0 0
                CHANNELS 6 Xposition Yposition Zposition Zrotation Xrotation Yrotation
                End Site
                {
                  OFFSET 0 0 0
                }
              }
            }
          }
        }
        JOINT Shoulder_R
        {
          OFFSET 12.9945 -0.242716 -4.98039
          CHANNELS 6 Xposition Yposition Zposition Zrotation Xrotation Yrotation
          JOINT UpperArm_R
          {
            OFFSET -5.34813 0 0
            CHANNELS 6 Xposition Yposition Zposition Zrotation Xrotation Yrotation
            JOINT LowerArm_R
            {
              OFFSET -24.3289 0.000322201 0
              CHANNELS 6 Xposition Yposition Zposition Zrotation Xrotation Yrotation
              JOINT Hand_R
              {
                OFFSET -22.2915 -0.000108084 0
                CHANNELS 6 Xposition Yposition Zposition Zrotation Xrotation Yrotation
                End Site
                {
                  OFFSET 0 0 0
                }
              }
            }
          }
        }
      }
    }
    JOINT UpperLeg_L
    {
      OFFSET -2.19248 -6.46944 0
      CHANNELS 6 Xposition Yposition Zposition Zrotation Xrotation Yrotation
      JOINT LowerLeg_L
      {
        OFFSET 39.0811 0 -1.23785e-05
        CHANNELS 6 Xposition Yposition Zposition Zrotation Xrotation Yrotation
        JOINT Foot_L
        {
          OFFSET 40.9854 0 -1.26872e-05
          CHANNELS 6 Xposition Yposition Zposition Zrotation Xrotation Yrotation
          JOINT Toes_L
          {
            OFFSET 11.7543 0 0
            CHANNELS 6 Xposition Yposition Zposition Zrotation Xrotation Yrotation
            End Site
            {
              OFFSET 0 0 0
            }
          }
        }
      }
    }
    JOINT UpperLeg_R
    {
      OFFSET -2.19251 6.46944 0
      CHANNELS 6 Xposition Yposition Zposition Zrotation Xrotation Yrotation
      JOINT LowerLeg_R
      {
        OFFSET -39.0811 -0.00228153 -0.0401928
        CHANNELS 6 Xposition Yposition Zposition Zrotation Xrotation Yrotation
        JOINT Foot_R
        {
          OFFSET -40.9854 0 0
          CHANNELS 6 Xposition Yposition Zposition Zrotation Xrotation Yrotation
          JOINT Toes_R
          {
            OFFSET -11.7543 0 0
            CHANNELS 6 Xposition Yposition Zposition Zrotation Xrotation Yrotation
            End Site
            {
              OFFSET 0 0 0
            }
          }
        }
      }
    }
  }
}
MOTION
Frames:	5
Frame Time:	0.0333333
0 0 0 0 0 -0 -6.55341 92.8131 2.19733 87.6215 -5.55921 -6.65223 15.7357 5.1072e-06 -5.51765e-07 140.412 87.9833 -139.291 8.98455 -0.406207 -4.3199e-07 -5.22777 2.97781 2.38022 16.3773 -1.3905e-06 -6.99897e-07 -10.1835 -3.4544 3.61903 6.45672 -1.25837e-06 -1.02172e-07 8.10459 -5.63469 8.6959 12.9942 -0.242716 4.98039 -82.5034 -22.6244 -86.1154 5.34809 -7.22636e-06 -6.2814e-07 -14.5751 -57.936 -34.5373 24.3286 1.87007e-05 4.90208e-06 -3.82039 -1.7621 -65.0885 22.2916 -9.88446e-07 4.63217e-06 31.1547 4.12084 22.5052 12.9945 -0.242716 -4.98039 97.7081 -25.6221 -87.6201 -5.34813 -1.25947e-06 -3.79883e-06 -40.7677 -53.3982 -58.0985 -24.3289 0.000322201 -8.65921e-06 -5.97775 -4.89023 -50.8988 -22.2915 -0.000108084 -4.47941e-06 44.2582 4.73227 12.5743 -2.19248 -6.46944 -1.22534e-07 -173.576 -9.17092 -9.07367 39.0811 -6.73843e-06 -1.23785e-05 0.0353342 -0.104684 17.9829 40.9854 -6.48686e-06 -1.26872e-05 -3.40474 1.80159 -63.4667 11.7543 -2.30145e-07 3.05095e-06 -0.280375 -0.313516 -17.9249 -2.19251 6.46944 -1.45247e-06 -172.145 6.36316 174.689 -39.0811 -0.00228153 -0.0401928 0.00393515 0.0146256 8.2894 -40.9854 7.72618e-06 5.99936e-06 5.09154 -2.94835 -60.3258 -11.7543 -5.6619e-06 -5.58687e-06 -0.0975199 0.0745225 -16.5719 
0 0 0 0 0 -0 -6.54957 92.5148 2.27739 86.7815 -7.79834 -6.50138 15.7357 5.1072e-06 -5.51765e-07 140.553 87.7031 -138.985 8.98455 -0.406207 -4.3199e-07 -4.89612 3.37067 3.28373 16.3773 -1.3905e-06 -6.99897e-07 -9.18681 -2.66613 4.80238 6.45672 -1.25837e-06 -1.02172e-07 7.59258 -4.23994 8.52219 12.9942 -0.242716 4.98039 -82.245 -22.3589 -85.3028 5.34809 -7.22636e-06 -6.2814e-07 -0.601275 -54.8177 -19.5514 24.3286 1.87007e-05 4.90208e-06 -0.220048 -0.0433659 -89.7197 22.2916 -9.88446e-07 4.63217e-06 30.718 4.59585 14.8111 12.9945 -0.242716 -4.98039 97.6511 -25.2613 -87.5263 -5.34813 -1.25947e-06 -3.79883e-06 -21.7959 -50.9504 -44.6084 -24.3289 0.000322201 -8.65921e-06 -3.44529 -0.990698 -74.1835 -22.2915 -0.000108084 -4.47941e-06 42.8762 4.91099 9.09248 -2.19248 -6.46944 -1.22534e-07 -172.92 -9.59797 -9.49886 39.0811 -6.73843e-06 -1.23785e-05 0.0439608 -0.114693 20.457 40.9854 -6.48686e-06 -1.26872e-05 -3.62415 0.0392695 -65.4953 11.7543 -2.30145e-07 3.05095e-06 -0.327315 -0.37191 -17.4771 -2.19251 6.46944 -1.45247e-06 -171.58 4.78498 173.329 -39.0811 -0.00228153 -0.0401928 0.0155609 -0.0315069 11.8464 -40.9854 7.72618e-06 5.99936e-06 5.09962 -2.40444 -62.01 -11.7543 -5.6619e-06 -5.58687e-06 -0.127722 0.0998235 -16.5708 
0 0 0 0 0 -0 -6.6416 92.1419 2.05548 85.5308 -8.98194 -6.68726 15.7357 5.1072e-06 -5.51765e-07 135.224 87.3209 -133.136 8.98455 -0.406207 -4.3199e-07 -4.05818 3.58569 4.30596 16.3773 -1.3905e-06 -6.99897e-07 -10.4267 -2.59889 6.23319 6.45672 -1.25837e-06 -1.02172e-07 7.67099 -3.07216 9.31744 12.9942 -0.242716 4.98039 -81.559 -22.4645 -83.7756 5.34809 -7.22636e-06 -6.2814e-07 2.98725 -59.2918 -14.0582 24.3286 1.87007e-05 4.90208e-06 27.7806 -6.82543 -102.668 22.2916 -9.88446e-07 4.63217e-06 41.7822 5.41012 -0.961182 12.9945 -0.242716 -4.98039 97.8088 -25.0528 -87.0548 -5.34813 -1.25947e-06 -3.79883e-06 -11.0408 -53.6627 -36.7966 -24.3289 0.000322201 -8.65921e-06 2.47534 0.0743685 -88.173 -22.2915 -0.000108084 -4.47941e-06 44.6711 5.58722 -8.62247 -2.19248 -6.46944 -1.22534e-07 -171.717 -9.15784 -10.6441 39.0811 -6.73843e-06 -1.23785e-05 0.0553066 -0.128812 23.1966 40.9854 -6.48686e-06 -1.26872e-05 -3.9602 -1.57346 -67.8522 11.7543 -2.30145e-07 3.05095e-06 -0.350168 -0.357487 -16.6184 -2.19251 6.46944 -1.45247e-06 -170.316 4.54703 171.742 -39.0811 -0.00228153 -0.0401928 0.0349525 -0.0852172 14.8687 -40.9854 7.72618e-06 5.99936e-06 5.31015 -1.57888 -63.3501 -11.7543 -5.6619e-06 -5.58687e-06 -0.160386 0.126828 -16.5699 
0 0 0 0 0 -0 -6.86618 91.7781 1.74297 84.5425 -8.77099 -6.53909 15.7357 5.1072e-06 -5.51765e-07 129.753 86.8314 -127.404 8.98455 -0.406207 -4.3199e-07 -2.97113 3.83083 4.79929 16.3773 -1.3905e-06 -6.99897e-07 -12.5471 -3.19068 7.28692 6.45672 -1.25837e-06 -1.02172e-07 6.17826 -2.6072 10.0245 12.9942 -0.242716 4.98039 -81.6191 -22.3775 -83.8445 5.34809 -7.22636e-06 -6.2814e-07 3.43784 -62.4218 -14.5365 24.3286 1.87007e-05 4.90208e-06 42.4051 -4.8874 -95.3089 22.2916 -9.88446e-07 4.63217e-06 90.5534 5.39193 -2.77247 12.9945 -0.242716 -4.98039 97.3826 -24.0321 -87.3514 -5.34813 -1.25947e-06 -3.79883e-06 -3.70935 -56.3001 -30.745 -24.3289 0.000322201 -8.65921e-06 15.9568 1.96743 -83.2298 -22.2915 -0.000108084 -4.47941e-06 69.2336 5.66684 -21.9311 -2.19248 -6.46944 -1.22534e-07 -170.339 -7.83317 -11.797 39.0811 -6.73843e-06 -1.23785e-05 0.0345087 -0.0717337 25.7968 40.9854 -6.48686e-06 -1.26872e-05 -5.16879 -2.27474 -69.374 11.7543 -2.30145e-07 3.05095e-06 -0.047749 0.034293 -16.576 -2.19251 6.46944 -1.45247e-06 -169.06 5.45647 170.606 -39.0811 -0.00228153 -0.0401928 0.0606323 -0.144758 17.3166 -40.9854 7.72618e-06 5.99936e-06 5.61111 -1.09542 -64.4768 -11.7543 -5.6619e-06 -5.58687e-06 -0.167495 0.132056 -16.5698 
0 0 0 0 0 -0 -7.16433 91.6568 1.57862 84.4873 -7.84323 -6.19791 15.7357 5.1072e-06 -5.51765e-07 128.816 86.691 -126.68 8.98455 -0.406207 -4.3199e-07 -2.6824 3.95214 4.36677 16.3773 -1.3905e-06 -6.99897e-07 -13.9548 -4.41136 6.78833 6.45672 -1.25837e-06 -1.02172e-07 5.95668 -3.96724 10.6805 12.9942 -0.242716 4.98039 -81.9293 -22.3346 -84.5374 5.34809 -7.22636e-06 -6.2814e-07 -10.4825 -67.7406 -28.2319 24.3286 1.87007e-05 4.90208e-06 24.608 3.58951 -82.1173 22.2916 -9.88446e-07 4.63217e-06 67.6807 5.41211 -2.89668 12.9945 -0.242716 -4.98039 96.9295 -23.3662 -87.9632 -5.34813 -1.25947e-06 -3.79883e-06 -9.66899 -59.146 -33.4439 -24.3289 0.000322201 -8.65921e-06 11.5665 4.23761 -70.0445 -22.2915 -0.000108084 -4.47941e-06 51.0729 5.64997 -10.3645 -2.19248 -6.46944 -1.22534e-07 -169.91 -7.06699 -12.1539 39.0811 -6.73843e-06 -1.23785e-05 0.0355571 -0.0708877 26.5992 40.9854 -6.48686e-06 -1.26872e-05 -5.35561 -1.97431 -69.575 11.7543 -2.30145e-07 3.05095e-06 -0.0441856 0.0321701 -16.5762 -2.19251 6.46944 -1.45247e-06 -168.662 7.12924 170.394 -39.0811 -0.00228153 -0.0401928 0.0724723 -0.171878 18.0635 -40.9854 7.72618e-06 5.99936e-06 5.92002 -0.594251 -64.9403 -11.7543 -5.6619e-06 -5.58687e-06 -0.162158 0.126525 -16.5702 
